<?xml version="1.0" encoding="UTF-8"?>
<svg id="Capa_1" xmlns="http://www.w3.org/2000/svg" version="1.1" viewBox="0 0 1080 1080">
  <!-- Generator: Adobe Illustrator 29.7.1, SVG Export Plug-In . SVG Version: 2.1.1 Build 8)  -->
  <defs>
    <style>
      .st0 {
        fill: #ceb483;
        fill-rule: evenodd;
      }
    </style>
  </defs>
  <path class="st0" d="M251.72,306.23c-65.79,74.92-98.19,162.03-96.17,262.24,1,129.6,71.87,252.12,183.24,320.97,62.81,38.47,131.65,58.72,205.55,58.72,1.03,0,1.03,1.03,1.03,1.03v84.02q0,1.03-1.03,1.03c-108.32-1.03-205.55-34.42-289.56-99.22-117.45-89.1-187.32-227.82-186.29-376.67,1-137.69,61.74-267.29,167.04-357.42,114.43-97.2,269.35-134.67,417.17-101.25,143.77,32.4,264.27,130.62,326.01,264.27,14.17,29.34,24.3,58.72,31.4,88.1v1l-1.03,1.03h-86.04c-1.03,0-2.02-1.03-2.02-2.02-25.33-83.06-72.9-150.87-142.77-202.53-163.02-120.47-393.86-95.17-526.51,56.7ZM648.64,766.96h-1.03v2.02l124.55,104.27c1.03,1.03,2.02,1.03,3.05,0,88.07-63.77,145.79-159.97,157.94-268.32h1c0-1-1-1-2.02-1h-88.07c-1.03,0-1.03-1.03-1.03-2.02v-83.02q0-1.03,1.03-1.03h175.17c1,0,2.02,1.03,2.02,2.02,7.07,102.28-15.2,197.45-66.86,283.52-44.55,73.89-108.32,134.64-185.26,175.14-2.02,1.03-4.05,1.03-6.07-1l-251.12-211.62c-2.02-1-3.02-3.02-3.02-6.07v-69.88c0-1,1-1,2.02-1h65.79c20.25,0,38.47-1.03,55.7-7.1,30.37-10.12,53.64-28.35,69.88-55.67,24.3-42.52,21.24-96.2-8.13-135.67-17.19-22.27-39.47-38.47-66.82-46.57-12.15-3.05-31.37-5.08-59.72-4.05h-170.09c-1.03,0-2.02,1-2.02,2.02v193.36c0,2.02-1.03,2.02-2.02,2.02h-82.03c-1.03,0-2.02,0-2.02-1v-281.5l1-1h237.95c36.45,0,56.7,0,61.78,1,53.64,5.08,99.22,26.32,135.67,64.83,76.95,77.94,78.97,205.51,3.05,286.51-27.35,29.38-60.78,49.63-100.25,60.78Z"/>
</svg>